<?xml version="1.0" standalone="no"?>
<!DOCTYPE svg PUBLIC "-//W3C//DTD SVG 20010904//EN"
 "http://www.w3.org/TR/2001/REC-SVG-20010904/DTD/svg10.dtd">
<svg version="1.0" xmlns="http://www.w3.org/2000/svg"
 width="192.000000pt" height="192.000000pt" viewBox="0 0 192.000000 192.000000"
 preserveAspectRatio="xMidYMid meet">

<g transform="translate(0.000000,192.000000) scale(0.100000,-0.100000)"
fill="#000000" stroke="none">
<path d="M0 960 l0 -960 960 0 960 0 0 960 0 960 -960 0 -960 0 0 -960z m1042
675 c198 -41 349 -180 415 -379 24 -73 27 -96 26 -221 0 -124 -3 -148 -25
-212 -30 -85 -67 -151 -114 -203 l-34 -38 157 -151 158 -151 -225 0 -225 0
-71 71 -72 72 -144 1 c-127 2 -151 5 -210 28 -99 37 -173 85 -234 151 -214
231 -201 654 27 879 140 138 362 198 571 153z"/>
<path d="M825 1333 c-34 -8 -83 -52 -109 -96 -57 -99 -60 -290 -5 -398 54
-107 199 -148 288 -81 74 55 117 175 108 302 -10 137 -54 227 -128 266 -27 13
-111 17 -154 7z"/>
</g>
</svg>
