<?xml version="1.0" standalone="no"?>
<!DOCTYPE svg PUBLIC "-//W3C//DTD SVG 20010904//EN"
 "http://www.w3.org/TR/2001/REC-SVG-20010904/DTD/svg10.dtd">
<svg version="1.0" xmlns="http://www.w3.org/2000/svg"
 width="600.000000pt" height="600.000000pt" viewBox="0 0 600.000000 600.000000"
 preserveAspectRatio="xMidYMid meet">

<g transform="translate(0.000000,600.000000) scale(0.100000,-0.100000)"
fill="#000000" stroke="none">
<path d="M0 3000 l0 -3000 3000 0 3000 0 0 3000 0 3000 -3000 0 -3000 0 0
-3000z m2254 1748 c13 -13 97 -120 185 -238 88 -118 164 -219 169 -225 4 -5
24 -32 45 -60 20 -27 41 -55 47 -62 6 -7 20 -27 33 -45 98 -142 442 -587 457
-591 13 -3 30 8 57 38 21 24 90 99 154 167 63 67 144 155 179 193 35 39 95
104 134 145 81 86 245 264 274 298 11 13 78 85 149 160 71 75 150 160 175 187
l47 50 141 0 c190 1 190 1 80 -115 -3 -3 -52 -56 -110 -119 -58 -63 -116 -127
-130 -141 -14 -15 -74 -80 -135 -146 -178 -193 -208 -225 -240 -259 -16 -17
-75 -81 -130 -141 -55 -60 -134 -145 -175 -189 -41 -44 -98 -105 -127 -135
-28 -30 -81 -86 -117 -125 -36 -38 -66 -78 -66 -88 0 -13 344 -484 446 -610 8
-9 31 -41 51 -70 20 -28 187 -252 371 -497 184 -245 343 -456 353 -470 218
-291 269 -362 264 -370 -7 -12 -1074 -14 -1092 -2 -7 4 -86 107 -177 227 -91
121 -170 226 -176 232 -6 7 -23 32 -39 56 -16 23 -111 151 -210 282 -99 132
-192 256 -206 275 -14 19 -54 72 -89 117 -35 45 -73 98 -86 118 -16 27 -27 34
-41 30 -18 -6 -93 -81 -184 -185 -27 -30 -54 -60 -59 -66 -15 -15 -236 -253
-321 -344 -72 -78 -288 -311 -315 -340 -8 -9 -62 -67 -120 -130 -58 -63 -141
-152 -184 -197 l-80 -83 -147 0 c-147 0 -181 8 -148 34 8 6 61 63 119 126 129
140 112 121 251 271 64 68 134 145 157 171 22 26 73 82 114 124 86 91 107 113
172 185 28 30 104 113 171 184 67 72 170 184 230 250 60 66 127 138 147 160
21 22 38 48 38 57 0 10 -81 127 -181 260 -312 419 -692 927 -735 982 -23 29
-58 77 -79 106 -21 30 -42 59 -47 65 -74 91 -358 478 -358 488 0 7 3 17 7 20
3 4 244 7 534 7 l528 0 25 -22z"/>
<path d="M1640 4514 c0 -15 183 -272 250 -351 6 -7 27 -36 48 -65 20 -29 147
-199 282 -378 135 -178 261 -348 280 -376 19 -28 48 -66 63 -85 32 -38 523
-694 547 -729 14 -20 508 -681 528 -705 20 -24 130 -172 157 -211 17 -23 40
-54 52 -68 l23 -26 235 0 c191 0 237 3 241 14 3 7 -42 77 -103 157 -59 79
-117 157 -128 172 -11 16 -121 162 -243 325 -123 163 -250 334 -282 378 -32
45 -65 90 -74 100 -32 39 -410 543 -471 629 -35 50 -201 272 -369 495 -366
486 -338 448 -442 590 -47 63 -92 121 -101 128 -12 9 -80 12 -255 12 -131 0
-238 -3 -238 -6z"/>
</g>
</svg>
