<?xml version="1.0" encoding="UTF-8"?>
<svg id="Layer_1" data-name="Layer 1" xmlns="http://www.w3.org/2000/svg" viewBox="0 0 1837.45 399.24">
  <defs>
    <style>
      .cls-1 {
        fill: #fff;
      }

      .cls-2 {
        fill: #4f46e5;
      }
    </style>
  </defs>
  <path class="cls-2" d="m337.33,185.72c0,51.86-16.74,94.54-50.23,128.02l88.54,85.5h-126.62l-42.52-43.22c-12.46,2.65-25.46,3.97-39.01,3.97-31.46,0-60.08-7.12-85.85-21.38-25.78-14.25-45.83-34.26-60.15-60.04C7.16,252.81,0,223.65,0,191.09s7.24-64.79,21.73-92.04c14.48-27.25,34.81-48.32,60.97-63.19,26.16-14.87,55.91-22.31,89.24-22.31s60.77,7.13,86.09,21.38c25.31,14.25,44.85,34.57,58.64,60.97,13.78,26.4,20.67,56.34,20.67,89.82Zm-106.99,2.8c0-27.57-5.3-49.29-15.89-65.18-10.59-15.89-25.08-23.83-43.45-23.83-20.09,0-35.74,7.63-46.96,22.89-11.21,15.26-16.82,36.83-16.82,64.71s5.57,48.51,16.7,63.78c11.13,15.26,26.28,22.89,45.44,22.89s32.94-7.71,44.15-23.13,16.82-36.13,16.82-62.14Z"/>
  <path class="cls-1" d="m622.21,345.04c-27.72,9.96-59.73,14.95-96.01,14.95s-66.43-6.81-92.28-20.44c-25.85-13.63-45.59-33.02-59.22-58.17-13.63-25.15-20.44-54.16-20.44-87.02,0-35.35,7.63-66.81,22.89-94.38,15.26-27.57,36.83-48.86,64.71-63.89,27.88-15.03,59.96-22.54,96.25-22.54,28.97,0,57,3.5,84.1,10.51v93.21c-9.34-5.61-20.48-9.96-33.41-13.08-12.93-3.11-26.01-4.67-39.25-4.67-27.41,0-49.02,7.87-64.83,23.59-15.81,15.73-23.71,37.07-23.71,64.01s7.9,47.93,23.71,63.42c15.81,15.5,36.95,23.24,63.43,23.24,24.45,0,49.13-6.23,74.05-18.69v89.94Z"/>
  <path class="cls-1" d="m785.91,354.15v-36.44h-.93c-15.89,28.19-40.18,42.28-72.89,42.28-22.58,0-40.26-6.69-53.03-20.09-12.77-13.39-19.16-31.3-19.16-53.73,0-47.03,28.89-74.29,86.67-81.76l59.34-7.71c0-7.79-3.5-14.17-10.51-19.16-7.01-4.98-16.43-7.48-28.27-7.48-26.79,0-55.06,7.63-84.8,22.89v-64.71c12.93-5.61,29.12-10.2,48.59-13.78,19.47-3.58,36.13-5.37,49.99-5.37,40.65,0,70.12,8.68,88.42,26.05,18.3,17.37,27.45,46.37,27.45,87.02v131.99h-90.87Zm-58.87-81.3c0,6.54,2.06,11.91,6.19,16.12,4.12,4.21,10,6.31,17.64,6.31,10.43,0,18.88-3.89,25.35-11.68,6.46-7.79,9.69-17.75,9.69-29.9v-9.11l-33.64,4.67c-16.82,2.8-25.23,10.67-25.23,23.59Z"/>
  <path class="cls-1" d="m1089.56,200.2c-3.74-1.71-8.8-3.27-15.18-4.67-6.39-1.4-11.68-2.1-15.89-2.1-32.86,0-49.29,19-49.29,57v103.72h-99.52V114.94h99.52v42.05h.93c6.07-15.1,14.72-26.59,25.93-34.46,11.21-7.86,24.3-11.8,39.25-11.8,5.45,0,10.2.93,14.25,2.8v86.67Z"/>
  <path class="cls-1" d="m1266.13,354.15v-27.8h-.93c-7.94,10.44-18.3,18.65-31.07,24.65-12.77,5.99-25.39,8.99-37.84,8.99-20.4,0-38.39-5.02-53.96-15.07-15.58-10.04-27.22-24.1-34.92-42.17-7.71-18.06-11.56-39.4-11.56-64.01s4.59-47.89,13.78-67.51c9.19-19.62,22.11-34.88,38.78-45.79,16.66-10.9,35.35-16.35,56.07-16.35,9.81,0,18.88,1.4,27.22,4.21,8.33,2.8,15.57,6.58,21.73,11.33,6.15,4.75,10.08,9.46,11.8,14.13h.93V0h99.52v354.15h-99.52Zm2.1-126.85c0-14.33-3.15-25.46-9.46-33.41-6.31-7.94-14.83-11.91-25.58-11.91s-19.51,4.95-26.28,14.83c-6.77,9.89-10.16,23.09-10.16,39.6,0,33.8,11.68,50.69,35.04,50.69,11.06,0,19.89-4.56,26.51-13.67,6.62-9.11,9.93-22.39,9.93-39.83v-6.31Z"/>
  <path class="cls-1" d="m1487.32,262.81c1.71,10.28,7.63,18.34,17.75,24.18,10.12,5.84,23.51,8.76,40.18,8.76,23.2,0,45.16-4.44,65.88-13.32v63.08c-24.14,9.65-53.42,14.48-87.84,14.48-41.74,0-74.21-10.67-97.42-32-23.21-21.34-34.81-50.69-34.81-88.07,0-25.7,5.1-48.36,15.3-67.98,10.2-19.62,25.31-35,45.32-46.14,20.01-11.13,42.09-16.7,66.23-16.7s45.94,4.83,63.54,14.48c17.6,9.66,30.95,23.21,40.06,40.65,9.11,17.44,13.67,37.85,13.67,61.21v37.38h-147.88Zm59.8-52.09c0-27.57-9.89-41.35-29.67-41.35-8.26,0-15.18,3.78-20.79,11.33-5.61,7.56-8.88,17.56-9.81,30.02h60.27Z"/>
  <path class="cls-1" d="m1837.45,200.2c-3.74-1.71-8.8-3.27-15.18-4.67-6.39-1.4-11.68-2.1-15.89-2.1-32.86,0-49.29,19-49.29,57v103.72h-99.52V114.94h99.52v42.05h.93c6.07-15.1,14.72-26.59,25.93-34.46,11.21-7.86,24.3-11.8,39.25-11.8,5.45,0,10.2.93,14.25,2.8v86.67Z"/>
</svg>