<?xml version="1.0" encoding="utf-8"?>
<!-- Generator: Adobe Illustrator 27.7.0, SVG Export Plug-In . SVG Version: 6.00 Build 0)  -->
<svg version="1.1" id="Layer_1" xmlns="http://www.w3.org/2000/svg" xmlns:xlink="http://www.w3.org/1999/xlink" x="0px" y="0px"
	 viewBox="0 0 1856.6 526.8" style="enable-background:new 0 0 1856.6 526.8;" xml:space="preserve">
<style type="text/css">
	.st0{enable-background:new    ;}
	.st1{fill:#4F46E5;}
	.st2{fill:#111827;}
</style>
<g class="st0">
	<path class="st1" d="M351.6,238.3c0,51.9-16.7,94.5-50.2,128l88.5,85.5H263.3l-42.5-43.2c-12.5,2.6-25.5,4-39,4
		c-31.5,0-60.1-7.1-85.9-21.4c-25.8-14.2-45.8-34.3-60.2-60c-14.3-25.8-21.5-54.9-21.5-87.5c0-34.1,7.2-64.8,21.7-92
		c14.5-27.3,34.8-48.3,61-63.2c26.2-14.9,55.9-22.3,89.2-22.3c32.1,0,60.8,7.1,86.1,21.4c25.3,14.2,44.9,34.6,58.6,61
		S351.6,204.8,351.6,238.3z M244.6,241.1c0-27.6-5.3-49.3-15.9-65.2c-10.6-15.9-25.1-23.8-43.5-23.8c-20.1,0-35.7,7.6-47,22.9
		c-11.2,15.3-16.8,36.8-16.8,64.7c0,27.3,5.6,48.5,16.7,63.8c11.1,15.3,26.3,22.9,45.4,22.9c18.2,0,32.9-7.7,44.2-23.1
		C239,287.8,244.6,267.1,244.6,241.1z"/>
</g>
<g class="st0">
	<path class="st2" d="M636.5,397.6c-27.7,10-59.7,15-96,15c-35.7,0-66.4-6.8-92.3-20.4c-25.9-13.6-45.6-33-59.2-58.2
		c-13.6-25.1-20.4-54.2-20.4-87c0-35.4,7.6-66.8,22.9-94.4c15.3-27.6,36.8-48.9,64.7-63.9c27.9-15,60-22.5,96.2-22.5
		c29,0,57,3.5,84.1,10.5v93.2c-9.3-5.6-20.5-10-33.4-13.1c-12.9-3.1-26-4.7-39.2-4.7c-27.4,0-49,7.9-64.8,23.6
		c-15.8,15.7-23.7,37.1-23.7,64c0,26.8,7.9,47.9,23.7,63.4c15.8,15.5,36.9,23.2,63.4,23.2c24.4,0,49.1-6.2,74.1-18.7V397.6z"/>
</g>
<g class="st0">
	<path class="st2" d="M800.2,406.7v-36.4h-0.9c-15.9,28.2-40.2,42.3-72.9,42.3c-22.6,0-40.3-6.7-53-20.1
		c-12.8-13.4-19.2-31.3-19.2-53.7c0-47,28.9-74.3,86.7-81.8l59.3-7.7c0-7.8-3.5-14.2-10.5-19.2c-7-5-16.4-7.5-28.3-7.5
		c-26.8,0-55.1,7.6-84.8,22.9v-64.7c12.9-5.6,29.1-10.2,48.6-13.8c19.5-3.6,36.1-5.4,50-5.4c40.6,0,70.1,8.7,88.4,26
		c18.3,17.4,27.4,46.4,27.4,87v132H800.2z M741.3,325.4c0,6.5,2.1,11.9,6.2,16.1c4.1,4.2,10,6.3,17.6,6.3c10.4,0,18.9-3.9,25.3-11.7
		c6.5-7.8,9.7-17.8,9.7-29.9v-9.1l-33.6,4.7C749.7,304.6,741.3,312.5,741.3,325.4z"/>
</g>
<g class="st0">
	<path class="st2" d="M1103.8,252.8c-3.7-1.7-8.8-3.3-15.2-4.7c-6.4-1.4-11.7-2.1-15.9-2.1c-32.9,0-49.3,19-49.3,57v103.7h-99.5
		V167.5h99.5v42h0.9c6.1-15.1,14.7-26.6,25.9-34.5c11.2-7.9,24.3-11.8,39.2-11.8c5.4,0,10.2,0.9,14.2,2.8V252.8z"/>
</g>
<g class="st0">
	<path class="st2" d="M1280.4,406.7v-27.8h-0.9c-7.9,10.4-18.3,18.7-31.1,24.6c-12.8,6-25.4,9-37.8,9c-20.4,0-38.4-5-54-15.1
		c-15.6-10-27.2-24.1-34.9-42.2c-7.7-18.1-11.6-39.4-11.6-64c0-25.4,4.6-47.9,13.8-67.5c9.2-19.6,22.1-34.9,38.8-45.8
		c16.7-10.9,35.4-16.4,56.1-16.4c9.8,0,18.9,1.4,27.2,4.2c8.3,2.8,15.6,6.6,21.7,11.3c6.2,4.8,10.1,9.5,11.8,14.1h0.9V52.6h99.5
		v354.2H1280.4z M1282.5,279.9c0-14.3-3.2-25.5-9.5-33.4c-6.3-7.9-14.8-11.9-25.6-11.9s-19.5,4.9-26.3,14.8
		c-6.8,9.9-10.2,23.1-10.2,39.6c0,33.8,11.7,50.7,35,50.7c11.1,0,19.9-4.6,26.5-13.7c6.6-9.1,9.9-22.4,9.9-39.8V279.9z"/>
</g>
<g class="st0">
	<path class="st2" d="M1501.6,315.4c1.7,10.3,7.6,18.3,17.8,24.2c10.1,5.8,23.5,8.8,40.2,8.8c23.2,0,45.2-4.4,65.9-13.3v63.1
		c-24.1,9.7-53.4,14.5-87.8,14.5c-41.7,0-74.2-10.7-97.4-32c-23.2-21.3-34.8-50.7-34.8-88.1c0-25.7,5.1-48.4,15.3-68
		c10.2-19.6,25.3-35,45.3-46.1c20-11.1,42.1-16.7,66.2-16.7c24.8,0,45.9,4.8,63.5,14.5c17.6,9.7,31,23.2,40.1,40.6
		c9.1,17.4,13.7,37.8,13.7,61.2v37.4H1501.6z M1561.4,263.3c0-27.6-9.9-41.3-29.7-41.3c-8.3,0-15.2,3.8-20.8,11.3
		c-5.6,7.6-8.9,17.6-9.8,30H1561.4z"/>
</g>
<g class="st0">
	<path class="st2" d="M1851.7,252.8c-3.7-1.7-8.8-3.3-15.2-4.7c-6.4-1.4-11.7-2.1-15.9-2.1c-32.9,0-49.3,19-49.3,57v103.7h-99.5
		V167.5h99.5v42h0.9c6.1-15.1,14.7-26.6,25.9-34.5c11.2-7.9,24.3-11.8,39.2-11.8c5.5,0,10.2,0.9,14.2,2.8V252.8z"/>
</g>
</svg>
