<?xml version="1.0" encoding="UTF-8"?>
<svg id="Layer_1" data-name="Layer 1" xmlns="http://www.w3.org/2000/svg" viewBox="0 0 375.64 385.69">
  <defs>
    <style>
      .cls-1 {
        fill: none;
        isolation: isolate;
      }

      .cls-2 {
        fill: #4f46e5;
      }
    </style>
  </defs>
  <g class="cls-1">
    <g class="cls-1">
      <path class="cls-2" d="m337.33,172.17c0,51.86-16.74,94.54-50.23,128.02l88.54,85.5h-126.62l-42.52-43.22c-12.46,2.65-25.46,3.97-39.01,3.97-31.46,0-60.08-7.12-85.85-21.38-25.78-14.25-45.83-34.26-60.15-60.04C7.16,239.25,0,210.09,0,177.54s7.24-64.79,21.73-92.04c14.48-27.25,34.81-48.32,60.97-63.19C108.86,7.44,138.61,0,171.94,0s60.77,7.12,86.08,21.38c25.31,14.25,44.85,34.57,58.64,60.97s20.67,56.34,20.67,89.82Zm-106.99,2.8c0-27.57-5.3-49.29-15.89-65.18-10.59-15.89-25.08-23.83-43.45-23.83-20.09,0-35.74,7.63-46.96,22.89-11.21,15.26-16.82,36.83-16.82,64.71s5.57,48.51,16.7,63.78c11.13,15.26,26.28,22.89,45.44,22.89s32.94-7.71,44.15-23.13c11.21-15.42,16.82-36.13,16.82-62.14Z"/>
    </g>
  </g>
</svg>